<mxfile host="app.diagrams.net" agent="Mozilla/5.0 (Windows NT 10.0; Win64; x64) AppleWebKit/537.36 (KHTML, like Gecko) Chrome/133.0.0.0 Safari/537.36" version="26.0.14">
  <diagram id="R2lEEEUBdFMjLlhIrx00" name="Page-1">
    <mxGraphModel dx="1186" dy="687" grid="0" gridSize="10" guides="0" tooltips="1" connect="1" arrows="1" fold="1" page="1" pageScale="1" pageWidth="10000" pageHeight="10000" math="0" shadow="0" extFonts="Permanent Marker^https://fonts.googleapis.com/css?family=Permanent+Marker">
      <root>
        <mxCell id="0" />
        <mxCell id="1" parent="0" />
        <mxCell id="sM5seYUYF9-TsOFURJws-17" value="Data Objects" style="swimlane;whiteSpace=wrap;html=1;sketch=1;hachureGap=4;jiggle=2;curveFitting=1;strokeColor=#6c8ebf;fontFamily=Architects Daughter;fontSource=https%3A%2F%2Ffonts.googleapis.com%2Fcss%3Ffamily%3DArchitects%2BDaughter;fontSize=20;fillColor=#dae8fc;startSize=34;" parent="1" vertex="1">
          <mxGeometry x="149" y="198" width="1412" height="1025" as="geometry" />
        </mxCell>
        <mxCell id="pfoFcTRtM2cgHrAYwK6Y-29" value="Scriptable Objects" style="swimlane;whiteSpace=wrap;html=1;sketch=1;hachureGap=4;jiggle=2;curveFitting=1;strokeColor=#E07A5F;fontFamily=Architects Daughter;fontSource=https%3A%2F%2Ffonts.googleapis.com%2Fcss%3Ffamily%3DArchitects%2BDaughter;fontSize=16;fontColor=#393C56;fillColor=#F2CC8F;labelBackgroundColor=none;dashed=1;dashPattern=1 4;" parent="sM5seYUYF9-TsOFURJws-17" vertex="1">
          <mxGeometry x="45" y="53" width="312" height="938" as="geometry" />
        </mxCell>
        <mxCell id="o8G2fhGUsHrwVTccI_8I-12" value="&lt;div&gt;&lt;br&gt;&lt;/div&gt;" style="swimlane;fontStyle=0;childLayout=stackLayout;horizontal=1;startSize=26;fillColor=none;horizontalStack=0;resizeParent=1;resizeParentMax=0;resizeLast=0;collapsible=1;marginBottom=0;whiteSpace=wrap;html=1;sketch=1;hachureGap=4;jiggle=2;curveFitting=1;fontFamily=Architects Daughter;fontSource=https%3A%2F%2Ffonts.googleapis.com%2Fcss%3Ffamily%3DArchitects%2BDaughter;fontSize=16;labelBackgroundColor=none;strokeColor=#E07A5F;fontColor=#393C56;" parent="pfoFcTRtM2cgHrAYwK6Y-29" vertex="1">
          <mxGeometry x="25" y="55" width="230" height="52" as="geometry" />
        </mxCell>
        <mxCell id="6UFjZa_Qjo73gYVkkpTL-10" value="Abstracts / Interfaces" style="swimlane;whiteSpace=wrap;html=1;sketch=1;hachureGap=4;jiggle=2;curveFitting=1;fontFamily=Architects Daughter;fontSource=https%3A%2F%2Ffonts.googleapis.com%2Fcss%3Ffamily%3DArchitects%2BDaughter;fontSize=16;fillColor=#d0cee2;labelBackgroundColor=none;dashed=1;dashPattern=1 4;strokeColor=#56517e;" parent="sM5seYUYF9-TsOFURJws-17" vertex="1">
          <mxGeometry x="1009" y="52" width="377" height="936" as="geometry" />
        </mxCell>
        <mxCell id="pfoFcTRtM2cgHrAYwK6Y-30" value="Classes / Structs / Enums" style="swimlane;whiteSpace=wrap;html=1;sketch=1;hachureGap=4;jiggle=2;curveFitting=1;strokeColor=#10739e;fontFamily=Architects Daughter;fontSource=https%3A%2F%2Ffonts.googleapis.com%2Fcss%3Ffamily%3DArchitects%2BDaughter;fontSize=16;fillColor=#b1ddf0;labelBackgroundColor=none;dashed=1;dashPattern=1 4;movable=1;resizable=1;rotatable=1;deletable=1;editable=1;locked=0;connectable=1;container=0;" parent="sM5seYUYF9-TsOFURJws-17" vertex="1">
          <mxGeometry x="437" y="52" width="536" height="935" as="geometry" />
        </mxCell>
        <mxCell id="3UUSTof9eVxpqbUtaNMC-11" value="GameState" style="swimlane;fontStyle=0;childLayout=stackLayout;horizontal=1;startSize=26;horizontalStack=0;resizeParent=1;resizeParentMax=0;resizeLast=0;collapsible=1;marginBottom=0;whiteSpace=wrap;html=1;sketch=1;hachureGap=4;jiggle=2;curveFitting=1;fontFamily=Architects Daughter;fontSource=https%3A%2F%2Ffonts.googleapis.com%2Fcss%3Ffamily%3DArchitects%2BDaughter;fontSize=16;labelBackgroundColor=none;fillColor=#e3c800;fontColor=#000000;strokeColor=#B09500;" vertex="1" parent="pfoFcTRtM2cgHrAYwK6Y-30">
          <mxGeometry x="342" y="386" width="173" height="104" as="geometry" />
        </mxCell>
        <mxCell id="3UUSTof9eVxpqbUtaNMC-12" value="Lobby" style="text;strokeColor=none;fillColor=none;align=left;verticalAlign=top;spacingLeft=4;spacingRight=4;overflow=hidden;rotatable=0;points=[[0,0.5],[1,0.5]];portConstraint=eastwest;whiteSpace=wrap;html=1;fontSize=10;fontFamily=Architects Daughter;labelBackgroundColor=none;fontColor=#393C56;sketch=1;curveFitting=1;jiggle=2;" vertex="1" parent="3UUSTof9eVxpqbUtaNMC-11">
          <mxGeometry y="26" width="173" height="26" as="geometry" />
        </mxCell>
        <mxCell id="3UUSTof9eVxpqbUtaNMC-14" value="Loading" style="text;strokeColor=none;fillColor=none;align=left;verticalAlign=top;spacingLeft=4;spacingRight=4;overflow=hidden;rotatable=0;points=[[0,0.5],[1,0.5]];portConstraint=eastwest;whiteSpace=wrap;html=1;fontSize=10;fontFamily=Architects Daughter;labelBackgroundColor=none;fontColor=#393C56;sketch=1;curveFitting=1;jiggle=2;" vertex="1" parent="3UUSTof9eVxpqbUtaNMC-11">
          <mxGeometry y="52" width="173" height="26" as="geometry" />
        </mxCell>
        <mxCell id="3UUSTof9eVxpqbUtaNMC-13" value="Playing" style="text;strokeColor=none;fillColor=none;align=left;verticalAlign=top;spacingLeft=4;spacingRight=4;overflow=hidden;rotatable=0;points=[[0,0.5],[1,0.5]];portConstraint=eastwest;whiteSpace=wrap;html=1;fontSize=10;fontFamily=Architects Daughter;labelBackgroundColor=none;fontColor=#393C56;sketch=1;curveFitting=1;jiggle=2;" vertex="1" parent="3UUSTof9eVxpqbUtaNMC-11">
          <mxGeometry y="78" width="173" height="26" as="geometry" />
        </mxCell>
        <mxCell id="o8G2fhGUsHrwVTccI_8I-22" value="PlayerData : class" style="swimlane;fontStyle=0;childLayout=stackLayout;horizontal=1;startSize=26;horizontalStack=0;resizeParent=1;resizeParentMax=0;resizeLast=0;collapsible=1;marginBottom=0;whiteSpace=wrap;html=1;sketch=1;hachureGap=4;jiggle=2;curveFitting=1;fontFamily=Architects Daughter;fontSource=https%3A%2F%2Ffonts.googleapis.com%2Fcss%3Ffamily%3DArchitects%2BDaughter;fontSize=16;labelBackgroundColor=none;fillColor=#b1ddf0;strokeColor=#10739e;" parent="sM5seYUYF9-TsOFURJws-17" vertex="1">
          <mxGeometry x="487" y="125" width="230" height="104" as="geometry" />
        </mxCell>
        <mxCell id="o8G2fhGUsHrwVTccI_8I-23" value="+CurrentMoney : int" style="text;strokeColor=none;fillColor=none;align=left;verticalAlign=top;spacingLeft=4;spacingRight=4;overflow=hidden;rotatable=0;points=[[0,0.5],[1,0.5]];portConstraint=eastwest;whiteSpace=wrap;html=1;fontSize=10;fontFamily=Architects Daughter;labelBackgroundColor=none;fontColor=#393C56;sketch=1;curveFitting=1;jiggle=2;" parent="o8G2fhGUsHrwVTccI_8I-22" vertex="1">
          <mxGeometry y="26" width="230" height="26" as="geometry" />
        </mxCell>
        <mxCell id="o8G2fhGUsHrwVTccI_8I-24" value="+WinCount : int" style="text;strokeColor=none;fillColor=none;align=left;verticalAlign=top;spacingLeft=4;spacingRight=4;overflow=hidden;rotatable=0;points=[[0,0.5],[1,0.5]];portConstraint=eastwest;whiteSpace=wrap;html=1;fontSize=10;fontFamily=Architects Daughter;labelBackgroundColor=none;fontColor=#393C56;sketch=1;curveFitting=1;jiggle=2;" parent="o8G2fhGUsHrwVTccI_8I-22" vertex="1">
          <mxGeometry y="52" width="230" height="26" as="geometry" />
        </mxCell>
        <mxCell id="fnVRuLAe4SJystARj5R5-4" value="+LostCount : int" style="text;strokeColor=none;fillColor=none;align=left;verticalAlign=top;spacingLeft=4;spacingRight=4;overflow=hidden;rotatable=0;points=[[0,0.5],[1,0.5]];portConstraint=eastwest;whiteSpace=wrap;html=1;fontSize=10;fontFamily=Architects Daughter;labelBackgroundColor=none;fontColor=#393C56;sketch=1;curveFitting=1;jiggle=2;" parent="o8G2fhGUsHrwVTccI_8I-22" vertex="1">
          <mxGeometry y="78" width="230" height="26" as="geometry" />
        </mxCell>
        <mxCell id="o8G2fhGUsHrwVTccI_8I-30" style="edgeStyle=orthogonalEdgeStyle;rounded=0;sketch=1;hachureGap=4;jiggle=2;curveFitting=1;orthogonalLoop=1;jettySize=auto;html=1;exitX=1;exitY=0.5;exitDx=0;exitDy=0;fontFamily=Architects Daughter;fontSource=https%3A%2F%2Ffonts.googleapis.com%2Fcss%3Ffamily%3DArchitects%2BDaughter;fontSize=16;entryX=0.522;entryY=-0.023;entryDx=0;entryDy=0;entryPerimeter=0;labelBackgroundColor=none;strokeColor=none;fontColor=default;" parent="sM5seYUYF9-TsOFURJws-17" source="o8G2fhGUsHrwVTccI_8I-24" edge="1">
          <mxGeometry relative="1" as="geometry">
            <mxPoint x="512.0600000000004" y="326.8040000000001" as="targetPoint" />
          </mxGeometry>
        </mxCell>
        <mxCell id="fnVRuLAe4SJystARj5R5-5" value="RoomData&amp;nbsp;: class" style="swimlane;fontStyle=0;childLayout=stackLayout;horizontal=1;startSize=26;horizontalStack=0;resizeParent=1;resizeParentMax=0;resizeLast=0;collapsible=1;marginBottom=0;whiteSpace=wrap;html=1;sketch=1;hachureGap=4;jiggle=2;curveFitting=1;fontFamily=Architects Daughter;fontSource=https%3A%2F%2Ffonts.googleapis.com%2Fcss%3Ffamily%3DArchitects%2BDaughter;fontSize=16;labelBackgroundColor=none;fillColor=#b1ddf0;strokeColor=#10739e;" parent="sM5seYUYF9-TsOFURJws-17" vertex="1">
          <mxGeometry x="490" y="286" width="230" height="130" as="geometry" />
        </mxCell>
        <mxCell id="fnVRuLAe4SJystARj5R5-6" value="+Name : string&lt;span style=&quot;white-space: pre;&quot;&gt;&#x9;&lt;/span&gt;" style="text;strokeColor=none;fillColor=none;align=left;verticalAlign=top;spacingLeft=4;spacingRight=4;overflow=hidden;rotatable=0;points=[[0,0.5],[1,0.5]];portConstraint=eastwest;whiteSpace=wrap;html=1;fontSize=10;fontFamily=Architects Daughter;labelBackgroundColor=none;fontColor=#393C56;sketch=1;curveFitting=1;jiggle=2;" parent="fnVRuLAe4SJystARj5R5-5" vertex="1">
          <mxGeometry y="26" width="230" height="26" as="geometry" />
        </mxCell>
        <mxCell id="fnVRuLAe4SJystARj5R5-7" value="+MinBet : int" style="text;strokeColor=none;fillColor=none;align=left;verticalAlign=top;spacingLeft=4;spacingRight=4;overflow=hidden;rotatable=0;points=[[0,0.5],[1,0.5]];portConstraint=eastwest;whiteSpace=wrap;html=1;fontSize=10;fontFamily=Architects Daughter;labelBackgroundColor=none;fontColor=#393C56;sketch=1;curveFitting=1;jiggle=2;" parent="fnVRuLAe4SJystARj5R5-5" vertex="1">
          <mxGeometry y="52" width="230" height="26" as="geometry" />
        </mxCell>
        <mxCell id="fnVRuLAe4SJystARj5R5-8" value="+MaxBet : int" style="text;strokeColor=none;fillColor=none;align=left;verticalAlign=top;spacingLeft=4;spacingRight=4;overflow=hidden;rotatable=0;points=[[0,0.5],[1,0.5]];portConstraint=eastwest;whiteSpace=wrap;html=1;fontSize=10;fontFamily=Architects Daughter;labelBackgroundColor=none;fontColor=#393C56;sketch=1;curveFitting=1;jiggle=2;" parent="fnVRuLAe4SJystARj5R5-5" vertex="1">
          <mxGeometry y="78" width="230" height="26" as="geometry" />
        </mxCell>
        <mxCell id="fnVRuLAe4SJystARj5R5-9" value="+Image : Sprite" style="text;strokeColor=none;fillColor=none;align=left;verticalAlign=top;spacingLeft=4;spacingRight=4;overflow=hidden;rotatable=0;points=[[0,0.5],[1,0.5]];portConstraint=eastwest;whiteSpace=wrap;html=1;fontSize=10;fontFamily=Architects Daughter;labelBackgroundColor=none;fontColor=#393C56;sketch=1;curveFitting=1;jiggle=2;" parent="fnVRuLAe4SJystARj5R5-5" vertex="1">
          <mxGeometry y="104" width="230" height="26" as="geometry" />
        </mxCell>
        <mxCell id="fnVRuLAe4SJystARj5R5-10" value="TableSessionData&amp;nbsp;: class" style="swimlane;fontStyle=0;childLayout=stackLayout;horizontal=1;startSize=26;horizontalStack=0;resizeParent=1;resizeParentMax=0;resizeLast=0;collapsible=1;marginBottom=0;whiteSpace=wrap;html=1;sketch=1;hachureGap=4;jiggle=2;curveFitting=1;fontFamily=Architects Daughter;fontSource=https%3A%2F%2Ffonts.googleapis.com%2Fcss%3Ffamily%3DArchitects%2BDaughter;fontSize=16;labelBackgroundColor=none;fillColor=#b1ddf0;strokeColor=#10739e;" parent="sM5seYUYF9-TsOFURJws-17" vertex="1">
          <mxGeometry x="489" y="533" width="230" height="78" as="geometry" />
        </mxCell>
        <mxCell id="fnVRuLAe4SJystARj5R5-11" value="+BetAmount : int (private set)" style="text;strokeColor=none;fillColor=none;align=left;verticalAlign=top;spacingLeft=4;spacingRight=4;overflow=hidden;rotatable=0;points=[[0,0.5],[1,0.5]];portConstraint=eastwest;whiteSpace=wrap;html=1;fontSize=10;fontFamily=Architects Daughter;labelBackgroundColor=none;fontColor=#393C56;sketch=1;curveFitting=1;jiggle=2;" parent="fnVRuLAe4SJystARj5R5-10" vertex="1">
          <mxGeometry y="26" width="230" height="26" as="geometry" />
        </mxCell>
        <mxCell id="fnVRuLAe4SJystARj5R5-12" value="+Mode : GameMode (private set)" style="text;strokeColor=none;fillColor=none;align=left;verticalAlign=top;spacingLeft=4;spacingRight=4;overflow=hidden;rotatable=0;points=[[0,0.5],[1,0.5]];portConstraint=eastwest;whiteSpace=wrap;html=1;fontSize=10;fontFamily=Architects Daughter;labelBackgroundColor=none;fontColor=#393C56;sketch=1;curveFitting=1;jiggle=2;" parent="fnVRuLAe4SJystARj5R5-10" vertex="1">
          <mxGeometry y="52" width="230" height="26" as="geometry" />
        </mxCell>
        <mxCell id="fnVRuLAe4SJystARj5R5-18" style="edgeStyle=orthogonalEdgeStyle;rounded=1;orthogonalLoop=1;jettySize=auto;html=1;curved=0;sketch=1;curveFitting=1;jiggle=2;" parent="sM5seYUYF9-TsOFURJws-17" source="fnVRuLAe4SJystARj5R5-15" target="fnVRuLAe4SJystARj5R5-12" edge="1">
          <mxGeometry relative="1" as="geometry" />
        </mxCell>
        <mxCell id="fnVRuLAe4SJystARj5R5-15" value="GameMode : enum" style="swimlane;fontStyle=0;childLayout=stackLayout;horizontal=1;startSize=26;horizontalStack=0;resizeParent=1;resizeParentMax=0;resizeLast=0;collapsible=1;marginBottom=0;whiteSpace=wrap;html=1;sketch=1;hachureGap=4;jiggle=2;curveFitting=1;fontFamily=Architects Daughter;fontSource=https%3A%2F%2Ffonts.googleapis.com%2Fcss%3Ffamily%3DArchitects%2BDaughter;fontSize=16;labelBackgroundColor=none;fillColor=#e3c800;fontColor=#000000;strokeColor=#B09500;" parent="sM5seYUYF9-TsOFURJws-17" vertex="1">
          <mxGeometry x="777" y="558" width="173" height="78" as="geometry" />
        </mxCell>
        <mxCell id="fnVRuLAe4SJystARj5R5-16" value="TwoPlayer" style="text;strokeColor=none;fillColor=none;align=left;verticalAlign=top;spacingLeft=4;spacingRight=4;overflow=hidden;rotatable=0;points=[[0,0.5],[1,0.5]];portConstraint=eastwest;whiteSpace=wrap;html=1;fontSize=10;fontFamily=Architects Daughter;labelBackgroundColor=none;fontColor=#393C56;sketch=1;curveFitting=1;jiggle=2;" parent="fnVRuLAe4SJystARj5R5-15" vertex="1">
          <mxGeometry y="26" width="173" height="26" as="geometry" />
        </mxCell>
        <mxCell id="fnVRuLAe4SJystARj5R5-17" value="FourPlayer" style="text;strokeColor=none;fillColor=none;align=left;verticalAlign=top;spacingLeft=4;spacingRight=4;overflow=hidden;rotatable=0;points=[[0,0.5],[1,0.5]];portConstraint=eastwest;whiteSpace=wrap;html=1;fontSize=10;fontFamily=Architects Daughter;labelBackgroundColor=none;fontColor=#393C56;sketch=1;curveFitting=1;jiggle=2;" parent="fnVRuLAe4SJystARj5R5-15" vertex="1">
          <mxGeometry y="52" width="173" height="26" as="geometry" />
        </mxCell>
        <mxCell id="3UUSTof9eVxpqbUtaNMC-4" style="edgeStyle=orthogonalEdgeStyle;shape=connector;curved=0;rounded=1;sketch=1;jiggle=2;curveFitting=1;orthogonalLoop=1;jettySize=auto;html=1;exitX=0.5;exitY=1;exitDx=0;exitDy=0;strokeColor=default;align=center;verticalAlign=middle;fontFamily=Architects Daughter;fontSource=https%3A%2F%2Ffonts.googleapis.com%2Fcss%3Ffamily%3DArchitects%2BDaughter;fontSize=16;fontColor=default;fontStyle=0;labelBackgroundColor=none;endArrow=classic;entryX=0.5;entryY=0;entryDx=0;entryDy=0;" edge="1" parent="1" source="3UUSTof9eVxpqbUtaNMC-2" target="3UUSTof9eVxpqbUtaNMC-6">
          <mxGeometry relative="1" as="geometry">
            <mxPoint x="631.5955708821616" y="1489.2976780192062" as="targetPoint" />
          </mxGeometry>
        </mxCell>
        <mxCell id="3UUSTof9eVxpqbUtaNMC-8" style="edgeStyle=orthogonalEdgeStyle;shape=connector;curved=0;rounded=1;sketch=1;jiggle=2;curveFitting=1;orthogonalLoop=1;jettySize=auto;html=1;exitX=0.5;exitY=1;exitDx=0;exitDy=0;entryX=0.5;entryY=0;entryDx=0;entryDy=0;strokeColor=default;align=center;verticalAlign=middle;fontFamily=Architects Daughter;fontSource=https%3A%2F%2Ffonts.googleapis.com%2Fcss%3Ffamily%3DArchitects%2BDaughter;fontSize=16;fontColor=default;fontStyle=0;labelBackgroundColor=none;endArrow=classic;" edge="1" parent="1" source="3UUSTof9eVxpqbUtaNMC-2" target="3UUSTof9eVxpqbUtaNMC-7">
          <mxGeometry relative="1" as="geometry" />
        </mxCell>
        <mxCell id="3UUSTof9eVxpqbUtaNMC-2" value="GameState" style="html=1;align=center;verticalAlign=middle;rounded=1;absoluteArcSize=1;arcSize=10;dashed=0;whiteSpace=wrap;fontFamily=Architects Daughter;fontSize=16;labelBackgroundColor=none;sketch=1;curveFitting=1;jiggle=2;hachureGap=4;fontSource=https%3A%2F%2Ffonts.googleapis.com%2Fcss%3Ffamily%3DArchitects%2BDaughter;fontStyle=0;" vertex="1" parent="1">
          <mxGeometry x="696" y="1336" width="216" height="61.71" as="geometry" />
        </mxCell>
        <mxCell id="3UUSTof9eVxpqbUtaNMC-6" value="Lobby" style="html=1;align=center;verticalAlign=middle;rounded=1;absoluteArcSize=1;arcSize=10;dashed=0;whiteSpace=wrap;fontFamily=Architects Daughter;fontSize=16;labelBackgroundColor=none;sketch=1;curveFitting=1;jiggle=2;hachureGap=4;fontSource=https%3A%2F%2Ffonts.googleapis.com%2Fcss%3Ffamily%3DArchitects%2BDaughter;fontStyle=0;" vertex="1" parent="1">
          <mxGeometry x="556" y="1494.8600000000001" width="140" height="40" as="geometry" />
        </mxCell>
        <mxCell id="3UUSTof9eVxpqbUtaNMC-7" value="Playing" style="html=1;align=center;verticalAlign=middle;rounded=1;absoluteArcSize=1;arcSize=10;dashed=0;whiteSpace=wrap;fontFamily=Architects Daughter;fontSize=16;labelBackgroundColor=none;sketch=1;curveFitting=1;jiggle=2;hachureGap=4;fontSource=https%3A%2F%2Ffonts.googleapis.com%2Fcss%3Ffamily%3DArchitects%2BDaughter;fontStyle=0;" vertex="1" parent="1">
          <mxGeometry x="909" y="1493.8600000000001" width="140" height="40" as="geometry" />
        </mxCell>
        <mxCell id="3UUSTof9eVxpqbUtaNMC-9" value="GameState" style="html=1;shape=mxgraph.infographic.ribbonSimple;notch1=0;notch2=20;align=center;verticalAlign=middle;fontSize=14;fontStyle=0;fillColor=#FFFFFF;whiteSpace=wrap;sketch=1;hachureGap=4;jiggle=2;curveFitting=1;strokeColor=#10739e;fontFamily=Architects Daughter;fontSource=https%3A%2F%2Ffonts.googleapis.com%2Fcss%3Ffamily%3DArchitects%2BDaughter;fontColor=default;labelBackgroundColor=none;" vertex="1" parent="1">
          <mxGeometry x="553" y="1563.0000000000002" width="160" height="40" as="geometry" />
        </mxCell>
      </root>
    </mxGraphModel>
  </diagram>
</mxfile>
